<svg version="1.0" xmlns="http://www.w3.org/2000/svg"
     width="100.000000pt" height="100.000000pt" viewBox="0 0 200.000000 200.000000"
     preserveAspectRatio="xMidYMid meet">
    <metadata>
        Created by potrace 1.16, written by Peter Selinger 2001-2019
    </metadata>
    <g transform="translate(0.000000,200.000000) scale(0.100000,-0.100000)"
       fill="#000000" stroke="none">
        <path d="M788 1859 c-45 -23 -151 -121 -193 -177 -16 -22 -44 -48 -62 -57 -42
-23 -82 -82 -90 -131 -3 -22 -21 -69 -39 -106 -76 -151 -108 -316 -69 -348 40
-34 113 -1 213 96 l74 71 76 -81 c133 -142 187 -192 243 -228 68 -43 95 -77
104 -126 13 -81 -18 -109 -149 -135 -132 -27 -192 -86 -202 -201 -6 -63 24
-122 76 -149 l35 -19 -30 6 c-16 3 -56 10 -88 16 -53 10 -62 9 -93 -11 -32
-19 -61 -56 -52 -65 3 -2 15 7 28 21 13 14 32 25 42 25 19 0 24 -15 8 -25 -6
-3 -10 -11 -10 -17 0 -6 9 -3 21 7 20 19 22 18 112 -13 96 -33 249 -71 377
-93 139 -24 357 -11 449 27 28 12 31 17 21 29 -6 8 -22 17 -33 21 -17 4 -532
250 -545 259 -1 1 0 10 4 19 9 25 26 19 19 -6 -5 -18 -4 -20 4 -8 20 27 81
229 93 303 7 49 8 90 1 128 -8 49 -7 59 9 79 10 12 18 38 18 59 0 34 -6 40
-88 101 -51 39 -91 77 -96 92 -7 20 -2 52 22 135 44 148 82 321 75 339 -7 19
-35 18 -117 -5 l-68 -19 6 32 c18 84 19 126 2 151 -20 31 -56 32 -108 4z m232
-211 c0 -7 -13 -64 -30 -125 -35 -133 -91 -263 -115 -263 -28 0 -29 30 -1 59
32 33 32 35 4 74 -13 18 -22 37 -20 44 1 6 -11 14 -28 18 -16 4 -30 10 -30 13
0 4 14 39 32 79 l33 71 65 20 c79 24 90 25 90 10z m-41 -628 c20 -5 41 -10 48
-10 27 0 65 -25 79 -51 8 -16 14 -30 14 -33 0 -2 -23 -18 -51 -35 l-50 -32
-59 38 c-33 21 -60 45 -60 54 0 17 -34 87 -64 132 -19 28 -17 27 44 -12 34
-22 79 -45 99 -51z m-185 -456 c11 -4 14 -13 10 -31 -5 -19 -3 -24 7 -21 8 3
13 17 12 34 -1 16 1 22 3 14 3 -8 29 -23 60 -33 88 -29 125 -47 119 -57 -3 -5
-19 -5 -38 1 -17 5 -61 9 -97 9 -75 0 -119 -21 -150 -72 l-20 -33 0 40 c1 48
21 109 46 136 19 21 24 22 48 13z"/>
    </g>
</svg>
